<svg width="40" height="40" viewBox="0 0 40 40" fill="none" xmlns="http://www.w3.org/2000/svg">
    <g id="24 / symbols / github">
        <path id="icon" fill-rule="evenodd" clip-rule="evenodd" d="M16.7465 33.267C16.7551 33.4713 16.733 33.6707 16.69 33.8725C16.6144 34.227 16.4684 34.6022 16.2618 34.9489C15.6744 35.9344 14.6765 36.5919 13.3917 36.5919C10.3651 36.5919 9.17727 35.1071 7.68999 31.3889C6.68271 28.8707 6.20751 28.2767 5.07648 28.2767L5.07648 24.9506C8.10306 24.9506 9.29091 26.4354 10.7782 30.1536C11.7855 32.6719 12.2607 33.2659 13.3917 33.2659C13.3917 32.7833 13.3851 32.3558 13.3712 31.777C13.3386 30.4203 13.3348 30.1433 13.394 29.7806C13.4177 28.9889 13.6221 28.4271 14.032 27.8695C10.3204 27.0615 7.81704 25.3929 6.38026 22.6864L5.84204 21.4206C5.31769 19.9137 5.07648 18.2063 5.07648 16.2344C5.07648 13.9635 5.76888 11.9329 7.06218 10.2356C6.65874 8.62218 6.71399 6.65097 7.60482 4.42478L7.8959 3.69736L8.64216 3.45865C8.74207 3.42669 8.86354 3.39782 9.00623 3.37543C10.4594 3.14736 12.5271 3.69151 15.2303 5.42301C16.8238 5.05361 18.502 4.86711 20.1915 4.86711C21.7013 4.86711 23.2028 5.01932 24.6366 5.3194C27.2666 3.67243 29.2775 3.15587 30.6915 3.37572C30.8326 3.39765 30.9528 3.42596 31.0519 3.45739L31.8028 3.69551L32.0942 4.42737C32.8735 6.38434 33.0073 8.18786 32.7237 9.76596C34.2105 11.5499 35.0113 13.7431 35.0113 16.2344C35.0113 18.3348 34.8608 19.9141 34.4283 21.4505L33.9717 22.7034C32.7766 25.407 30.141 27.0944 26.0766 27.8981C26.4991 28.483 26.6961 29.0768 26.6961 29.9398V31.6028C26.6961 32.4087 26.6961 32.4335 26.6942 33.2659C26.698 33.3256 26.703 33.3549 26.7084 33.3731C26.7071 33.3736 26.6961 36.5919 26.6961 36.5919C25.2795 36.5919 24.2262 35.9011 23.7082 34.8114C23.4396 34.2464 23.3594 33.7069 23.37 33.2422V29.9398C23.37 29.8003 23.3651 29.7923 23.0255 29.4527C22.1178 28.545 21.7069 27.8601 21.7069 26.6137V25.1093L23.2038 24.959C27.6595 24.5115 30.0829 23.2741 30.8864 21.4664L31.2619 20.4399C31.5607 19.3666 31.6852 18.0595 31.6852 16.2344C31.6852 14.2952 31.0082 12.6932 29.7278 11.4133L29.024 10.7098L29.3112 9.7571C29.5664 8.9107 29.6271 7.90917 29.3571 6.76684C29.3122 6.77821 29.2656 6.79059 29.2172 6.80407C28.3267 7.05198 27.215 7.58392 25.8753 8.47944L25.2642 8.88788L24.5508 8.71099C23.1711 8.36885 21.6884 8.1932 20.1915 8.1932C18.527 8.1932 16.8815 8.40498 15.3615 8.81937L14.6197 9.0216L13.9851 8.58748C12.5995 7.63957 11.4484 7.07585 10.5253 6.81252C10.4594 6.79371 10.3966 6.77689 10.337 6.76189C10.0149 8.08399 10.1423 9.1702 10.4685 9.98527L10.8595 10.9626L10.1436 11.7342C9.00276 12.9639 8.40257 14.4602 8.40257 16.2344C8.40257 17.8588 8.59273 19.2048 8.9412 20.2188L9.37639 21.2489C10.4643 23.2903 12.7751 24.5185 16.895 24.9601L18.3808 25.1194V26.6137C18.3808 27.8601 17.9699 28.545 17.0622 29.4527C16.7226 29.7923 16.7178 29.8003 16.7178 29.9398L16.6891 30.2472C16.6702 30.348 16.6702 30.6084 16.6963 31.6971C16.7083 32.1978 16.7152 32.5941 16.7172 33.0083C16.7371 33.094 16.7401 33.1493 16.7465 33.267Z" fill="white"/>
    </g>
</svg>
