<svg width="40" height="40" viewBox="0 0 40 40" fill="none" xmlns="http://www.w3.org/2000/svg">
<g id="24 / symbols / twitter">
<path id="icon" fill-rule="evenodd" clip-rule="evenodd" d="M35.1665 7.49754L37.5192 7.77231L36.4616 9.89187C35.9459 10.9255 35.4296 11.9591 34.9129 12.9928C34.8516 13.2117 34.7439 13.4036 34.5846 13.6535C34.518 13.7579 34.2907 14.09 34.28 14.1059C34.22 14.196 34.1756 14.267 34.1436 14.3239V18.2961C34.1436 28.4606 24.3067 34.9198 15.017 34.9198C13.1161 34.9198 11.6718 34.8287 10.0181 34.4678C7.29651 33.8739 5.27113 32.6933 4.34431 30.63L3.39012 28.5058L5.70903 28.2925C7.80683 28.0996 9.62567 27.7 11.0225 27.1648C7.18778 26.5481 5.03884 24.8639 5.03884 21.701V20.0379H6.70189C7.06728 20.0379 7.39675 20.0083 7.69131 19.9539C4.81334 18.2331 3.37184 15.4727 3.37184 11.6439C3.37153 11.4807 3.37153 11.4807 3.37055 11.3062C3.35974 9.37637 3.4634 8.34519 3.9917 7.0291C4.33029 6.18563 4.81971 5.40478 5.47839 4.68932L6.73334 3.32617L7.95345 4.72058C11.9743 9.31581 15.949 12.1036 20.0072 12.4409C20.0245 8.20063 23.2291 4.99175 27.4912 4.99175C29.4781 4.99175 31.2804 5.74592 32.6967 7.10582C33.4719 7.26511 34.2952 7.39579 35.1665 7.49754ZM31.4894 10.2476L30.9796 10.1322L30.6275 9.74583C29.7761 8.81165 28.7076 8.31768 27.4909 8.31768C25.0579 8.31768 23.333 10.0512 23.333 12.4753C23.333 12.8715 23.3227 13.1204 23.2734 13.4476C23.0764 14.7531 22.3442 15.8014 20.8383 15.8014C15.8525 15.8014 11.3544 13.1304 6.96821 8.5684C6.74209 9.25578 6.68891 9.96235 6.69633 11.2875C6.69733 11.4647 6.69733 11.4647 6.69768 11.6438C6.69768 15.0497 8.07753 16.9127 11.3446 17.9511L12.5039 18.3196V19.5361C12.5039 21.0112 11.1064 22.3997 9.06164 23.0217C9.99898 23.7328 11.9159 24.1166 15.0173 24.1166H16.6804V25.7797C16.6804 28.1624 13.9426 30.028 9.80679 31.0022C11.1556 31.4154 12.9515 31.5935 15.0168 31.5935C22.6908 31.5935 30.8173 26.2574 30.8173 18.296V14.1383C30.8173 13.6498 30.9589 13.2257 31.1942 12.7847C31.2862 12.6123 31.3875 12.448 31.5125 12.2605C31.536 12.2252 31.6233 12.0974 31.6927 11.9951L31.8245 11.7315C32.038 11.3044 32.2515 10.8773 32.4649 10.4501C32.1333 10.3873 31.8081 10.3198 31.4894 10.2476Z" fill="white"/>
</g>
</svg>
